<?xml version="1.0" encoding="UTF-8"?>
<svg xmlns="http://www.w3.org/2000/svg" xmlns:xlink="http://www.w3.org/1999/xlink" width="40pt" height="40pt" viewBox="0 0 40 40" version="1.1">
<g id="surface1">
<path style=" stroke:none;fill-rule:evenodd;fill:rgb(74.117647%,23.921569%,26.666667%);fill-opacity:1;" d="M 0 0 L 57 0 L 57 3.078125 L 0 3.078125 Z M 0 6.15625 L 57 6.15625 L 57 9.234375 L 0 9.234375 Z M 0 12.304688 L 57 12.304688 L 57 15.390625 L 0 15.390625 Z M 0 18.460938 L 57 18.460938 L 57 21.539062 L 0 21.539062 Z M 0 24.617188 L 57 24.617188 L 57 27.695312 L 0 27.695312 Z M 0 30.765625 L 57 30.765625 L 57 33.84375 L 0 33.84375 Z M 0 36.921875 L 57 36.921875 L 57 40 L 0 40 Z M 0 36.921875 "/>
<path style=" stroke:none;fill-rule:evenodd;fill:rgb(100%,100%,100%);fill-opacity:1;" d="M 0 3.078125 L 57 3.078125 L 57 6.15625 L 0 6.15625 Z M 0 9.234375 L 57 9.234375 L 57 12.304688 L 0 12.304688 Z M 0 15.382812 L 57 15.382812 L 57 18.460938 L 0 18.460938 Z M 0 21.539062 L 57 21.539062 L 57 24.617188 L 0 24.617188 Z M 0 27.695312 L 57 27.695312 L 57 30.773438 L 0 30.773438 Z M 0 33.84375 L 57 33.84375 L 57 36.921875 L 0 36.921875 Z M 0 33.84375 "/>
<path style=" stroke:none;fill-rule:evenodd;fill:rgb(9.803922%,18.431373%,36.470588%);fill-opacity:1;" d="M 0 0 L 22.796875 0 L 22.796875 21.539062 L 0 21.539062 Z M 0 0 "/>
<path style=" stroke:none;fill-rule:evenodd;fill:rgb(100%,100%,100%);fill-opacity:1;" d="M 1.898438 0.921875 L 2.109375 1.773438 L 2.777344 1.773438 L 2.238281 2.296875 L 2.445312 3.15625 L 1.898438 2.625 L 1.359375 3.148438 L 1.566406 2.296875 L 1.019531 1.773438 L 1.699219 1.773438 Z M 5.703125 0.921875 L 5.90625 1.773438 L 6.582031 1.773438 L 6.035156 2.296875 L 6.242188 3.15625 L 5.703125 2.625 L 5.15625 3.148438 L 5.363281 2.296875 L 4.824219 1.773438 L 5.492188 1.773438 Z M 9.5 0.921875 L 9.710938 1.773438 L 10.371094 1.773438 L 9.832031 2.296875 L 10.039062 3.15625 L 9.492188 2.625 L 8.953125 3.148438 L 9.15625 2.296875 L 8.613281 1.773438 L 9.289062 1.773438 Z M 13.300781 0.921875 L 13.507812 1.773438 L 14.179688 1.773438 L 13.632812 2.296875 L 13.84375 3.15625 L 13.300781 2.625 L 12.753906 3.148438 L 12.964844 2.296875 L 12.421875 1.773438 L 13.089844 1.773438 Z M 17.097656 0.921875 L 17.308594 1.773438 L 17.976562 1.773438 L 17.4375 2.296875 L 17.640625 3.15625 L 17.097656 2.625 L 16.558594 3.148438 L 16.765625 2.296875 L 16.226562 1.773438 L 16.890625 1.773438 Z M 20.902344 0.921875 L 21.105469 1.773438 L 21.78125 1.773438 L 21.234375 2.296875 L 21.445312 3.15625 L 20.902344 2.625 L 20.355469 3.148438 L 20.566406 2.296875 L 20.023438 1.773438 L 20.695312 1.773438 Z M 3.804688 3.078125 L 4.007812 3.929688 L 4.679688 3.929688 L 4.136719 4.453125 L 4.335938 5.304688 L 3.808594 4.78125 L 3.265625 5.304688 L 3.457031 4.453125 L 2.929688 3.929688 L 3.597656 3.929688 Z M 7.597656 3.078125 L 7.808594 3.929688 L 8.476562 3.929688 L 7.933594 4.453125 L 8.144531 5.304688 L 7.597656 4.78125 L 7.054688 5.304688 L 7.265625 4.453125 L 6.71875 3.929688 L 7.394531 3.929688 Z M 11.402344 3.078125 L 11.609375 3.929688 L 12.28125 3.929688 L 11.734375 4.453125 L 11.941406 5.304688 L 11.402344 4.78125 L 10.855469 5.304688 L 11.0625 4.453125 L 10.523438 3.929688 L 11.191406 3.929688 Z M 15.199219 3.078125 L 15.410156 3.929688 L 16.078125 3.929688 L 15.53125 4.453125 L 15.742188 5.304688 L 15.199219 4.78125 L 14.660156 5.304688 L 14.867188 4.453125 L 14.320312 3.929688 L 15 3.929688 Z M 19 3.078125 L 19.207031 3.929688 L 19.878906 3.929688 L 19.335938 4.453125 L 19.539062 5.304688 L 19 4.78125 L 18.457031 5.304688 L 18.664062 4.453125 L 18.125 3.929688 L 18.789062 3.929688 Z M 1.898438 5.226562 L 2.109375 6.09375 L 2.777344 6.09375 L 2.238281 6.617188 L 2.445312 7.46875 L 1.898438 6.9375 L 1.359375 7.46875 L 1.566406 6.609375 L 1.019531 6.085938 L 1.699219 6.085938 Z M 5.703125 5.226562 L 5.90625 6.085938 L 6.582031 6.085938 L 6.035156 6.609375 L 6.242188 7.460938 L 5.703125 6.929688 L 5.15625 7.460938 L 5.363281 6.601562 L 4.824219 6.078125 L 5.492188 6.078125 Z M 9.5 5.226562 L 9.710938 6.085938 L 10.371094 6.085938 L 9.832031 6.609375 L 10.039062 7.460938 L 9.492188 6.929688 L 8.953125 7.460938 L 9.15625 6.601562 L 8.613281 6.078125 L 9.289062 6.078125 Z M 13.300781 5.226562 L 13.507812 6.085938 L 14.179688 6.085938 L 13.632812 6.609375 L 13.84375 7.460938 L 13.300781 6.929688 L 12.753906 7.460938 L 12.964844 6.601562 L 12.421875 6.078125 L 13.089844 6.078125 Z M 17.097656 5.226562 L 17.308594 6.085938 L 17.976562 6.085938 L 17.4375 6.609375 L 17.640625 7.460938 L 17.097656 6.929688 L 16.558594 7.460938 L 16.765625 6.601562 L 16.226562 6.078125 L 16.890625 6.078125 Z M 20.902344 5.226562 L 21.105469 6.085938 L 21.78125 6.085938 L 21.234375 6.609375 L 21.445312 7.460938 L 20.902344 6.929688 L 20.355469 7.460938 L 20.566406 6.601562 L 20.023438 6.078125 L 20.695312 6.078125 Z M 3.804688 7.382812 L 4.007812 8.234375 L 4.679688 8.234375 L 4.136719 8.757812 L 4.34375 9.617188 L 3.804688 9.085938 L 3.257812 9.609375 L 3.464844 8.757812 L 2.925781 8.234375 L 3.59375 8.234375 Z M 7.597656 7.382812 L 7.808594 8.234375 L 8.476562 8.234375 L 7.933594 8.757812 L 8.144531 9.617188 L 7.597656 9.085938 L 7.054688 9.609375 L 7.265625 8.757812 L 6.71875 8.234375 L 7.394531 8.234375 Z M 11.402344 7.382812 L 11.609375 8.234375 L 12.28125 8.234375 L 11.734375 8.757812 L 11.941406 9.617188 L 11.402344 9.085938 L 10.855469 9.609375 L 11.0625 8.757812 L 10.523438 8.234375 L 11.191406 8.234375 Z M 15.199219 7.382812 L 15.410156 8.234375 L 16.078125 8.234375 L 15.539062 8.757812 L 15.742188 9.617188 L 15.199219 9.085938 L 14.660156 9.609375 L 14.867188 8.757812 L 14.320312 8.234375 L 15 8.234375 Z M 19 7.382812 L 19.207031 8.234375 L 19.878906 8.234375 L 19.335938 8.757812 L 19.539062 9.617188 L 19 9.085938 L 18.457031 9.609375 L 18.660156 8.757812 L 18.121094 8.234375 L 18.789062 8.234375 Z M 1.898438 9.539062 L 2.109375 10.390625 L 2.777344 10.390625 L 2.238281 10.914062 L 2.445312 11.773438 L 1.898438 11.242188 L 1.359375 11.765625 L 1.566406 10.914062 L 1.019531 10.390625 L 1.699219 10.390625 Z M 5.703125 9.539062 L 5.90625 10.390625 L 6.582031 10.390625 L 6.035156 10.914062 L 6.242188 11.765625 L 5.703125 11.242188 L 5.15625 11.765625 L 5.363281 10.914062 L 4.824219 10.390625 L 5.492188 10.390625 Z M 9.5 9.539062 L 9.710938 10.390625 L 10.371094 10.390625 L 9.832031 10.914062 L 10.039062 11.773438 L 9.492188 11.242188 L 8.953125 11.765625 L 9.15625 10.914062 L 8.613281 10.390625 L 9.289062 10.390625 Z M 13.300781 9.539062 L 13.507812 10.390625 L 14.179688 10.390625 L 13.632812 10.914062 L 13.84375 11.773438 L 13.300781 11.242188 L 12.753906 11.765625 L 12.964844 10.914062 L 12.421875 10.390625 L 13.089844 10.390625 Z M 17.097656 9.539062 L 17.308594 10.390625 L 17.976562 10.390625 L 17.4375 10.914062 L 17.640625 11.773438 L 17.097656 11.242188 L 16.558594 11.765625 L 16.765625 10.914062 L 16.226562 10.390625 L 16.890625 10.390625 Z M 20.902344 9.539062 L 21.105469 10.390625 L 21.78125 10.390625 L 21.234375 10.914062 L 21.445312 11.773438 L 20.902344 11.242188 L 20.355469 11.765625 L 20.566406 10.914062 L 20.023438 10.390625 L 20.695312 10.390625 Z M 3.804688 11.695312 L 4.007812 12.546875 L 4.679688 12.546875 L 4.136719 13.070312 L 4.34375 13.921875 L 3.804688 13.390625 L 3.257812 13.921875 L 3.464844 13.0625 L 2.925781 12.539062 L 3.59375 12.539062 Z M 7.597656 11.695312 L 7.808594 12.546875 L 8.476562 12.546875 L 7.933594 13.070312 L 8.144531 13.921875 L 7.597656 13.390625 L 7.054688 13.921875 L 7.265625 13.0625 L 6.71875 12.539062 L 7.394531 12.539062 Z M 11.402344 11.695312 L 11.609375 12.546875 L 12.28125 12.546875 L 11.734375 13.070312 L 11.941406 13.921875 L 11.402344 13.390625 L 10.855469 13.921875 L 11.0625 13.0625 L 10.523438 12.539062 L 11.191406 12.539062 Z M 15.199219 11.695312 L 15.410156 12.546875 L 16.078125 12.546875 L 15.539062 13.070312 L 15.742188 13.921875 L 15.199219 13.390625 L 14.660156 13.921875 L 14.867188 13.0625 L 14.320312 12.539062 L 15 12.539062 Z M 19 11.695312 L 19.207031 12.546875 L 19.878906 12.546875 L 19.335938 13.070312 L 19.539062 13.921875 L 19 13.390625 L 18.457031 13.921875 L 18.660156 13.0625 L 18.121094 12.539062 L 18.789062 12.539062 Z M 1.898438 13.84375 L 2.109375 14.703125 L 2.777344 14.703125 L 2.238281 15.226562 L 2.445312 16.070312 L 1.898438 15.546875 L 1.359375 16.070312 L 1.566406 15.21875 L 1.019531 14.695312 L 1.699219 14.695312 Z M 5.703125 13.84375 L 5.90625 14.703125 L 6.582031 14.703125 L 6.035156 15.226562 L 6.246094 16.070312 L 5.703125 15.546875 L 5.15625 16.070312 L 5.367188 15.21875 L 4.824219 14.695312 L 5.492188 14.695312 Z M 9.5 13.84375 L 9.710938 14.703125 L 10.371094 14.703125 L 9.832031 15.226562 L 10.039062 16.070312 L 9.492188 15.546875 L 8.953125 16.070312 L 9.15625 15.21875 L 8.613281 14.695312 L 9.289062 14.695312 Z M 13.300781 13.84375 L 13.507812 14.703125 L 14.179688 14.703125 L 13.632812 15.226562 L 13.84375 16.070312 L 13.300781 15.546875 L 12.753906 16.070312 L 12.964844 15.21875 L 12.421875 14.695312 L 13.089844 14.695312 Z M 17.097656 13.84375 L 17.308594 14.703125 L 17.976562 14.703125 L 17.4375 15.226562 L 17.640625 16.070312 L 17.097656 15.546875 L 16.558594 16.070312 L 16.765625 15.21875 L 16.226562 14.695312 L 16.890625 14.695312 Z M 20.902344 13.84375 L 21.105469 14.703125 L 21.78125 14.703125 L 21.234375 15.226562 L 21.445312 16.070312 L 20.902344 15.546875 L 20.355469 16.070312 L 20.566406 15.21875 L 20.023438 14.695312 L 20.695312 14.695312 Z M 3.804688 16 L 4.007812 16.851562 L 4.679688 16.851562 L 4.136719 17.375 L 4.34375 18.234375 L 3.804688 17.703125 L 3.257812 18.226562 L 3.464844 17.375 L 2.925781 16.851562 L 3.59375 16.851562 Z M 7.597656 16 L 7.808594 16.851562 L 8.476562 16.851562 L 7.933594 17.375 L 8.144531 18.234375 L 7.597656 17.703125 L 7.054688 18.226562 L 7.265625 17.375 L 6.71875 16.851562 L 7.394531 16.851562 Z M 11.402344 16 L 11.609375 16.851562 L 12.28125 16.851562 L 11.734375 17.375 L 11.941406 18.234375 L 11.402344 17.703125 L 10.855469 18.226562 L 11.0625 17.375 L 10.523438 16.851562 L 11.191406 16.851562 Z M 15.199219 16 L 15.410156 16.851562 L 16.078125 16.851562 L 15.539062 17.375 L 15.742188 18.234375 L 15.199219 17.703125 L 14.660156 18.226562 L 14.867188 17.375 L 14.320312 16.851562 L 15 16.851562 Z M 19 16 L 19.207031 16.851562 L 19.878906 16.851562 L 19.335938 17.375 L 19.539062 18.234375 L 19 17.703125 L 18.457031 18.226562 L 18.660156 17.375 L 18.121094 16.851562 L 18.789062 16.851562 Z M 1.898438 18.15625 L 2.109375 19.007812 L 2.777344 19.007812 L 2.238281 19.53125 L 2.445312 20.382812 L 1.898438 19.859375 L 1.359375 20.382812 L 1.566406 19.523438 L 1.019531 19 L 1.699219 19 Z M 5.703125 18.15625 L 5.90625 19.007812 L 6.582031 19.007812 L 6.035156 19.53125 L 6.246094 20.382812 L 5.703125 19.859375 L 5.15625 20.382812 L 5.367188 19.523438 L 4.820312 19 L 5.492188 19 Z M 9.5 18.15625 L 9.710938 19.007812 L 10.371094 19.007812 L 9.84375 19.53125 L 10.046875 20.382812 L 9.503906 19.859375 L 8.964844 20.382812 L 9.171875 19.523438 L 8.625 19 L 9.296875 19 Z M 13.300781 18.15625 L 13.507812 19.007812 L 14.179688 19.007812 L 13.632812 19.53125 L 13.84375 20.382812 L 13.300781 19.859375 L 12.753906 20.382812 L 12.964844 19.523438 L 12.421875 19 L 13.089844 19 Z M 17.097656 18.15625 L 17.308594 19.007812 L 17.976562 19.007812 L 17.4375 19.53125 L 17.640625 20.382812 L 17.097656 19.859375 L 16.558594 20.382812 L 16.765625 19.523438 L 16.226562 19 L 16.890625 19 Z M 20.902344 18.15625 L 21.105469 19.007812 L 21.78125 19.007812 L 21.234375 19.53125 L 21.445312 20.382812 L 20.902344 19.859375 L 20.355469 20.382812 L 20.566406 19.523438 L 20.023438 19 L 20.695312 19 Z M 20.902344 18.15625 "/>
</g>
</svg>
